<mxfile host="app.diagrams.net" modified="2023-08-12T20:56:34.760Z" agent="Mozilla/5.0 (Windows NT 10.0; Win64; x64) AppleWebKit/537.36 (KHTML, like Gecko) Chrome/115.0.0.0 Safari/537.36 Edg/115.0.1901.203" etag="hmB65zMrlNMBSIRuQpfX" version="21.6.8" type="github">
  <diagram name="Page-1" id="NSTS_hqB7YbTJ9C77-ma">
    <mxGraphModel dx="1971" dy="1180" grid="1" gridSize="10" guides="1" tooltips="1" connect="1" arrows="1" fold="1" page="1" pageScale="1" pageWidth="850" pageHeight="1100" background="#ffffff" math="0" shadow="0">
      <root>
        <mxCell id="0" />
        <mxCell id="1" parent="0" />
      </root>
    </mxGraphModel>
  </diagram>
</mxfile>
